# xmcd CD database file
#
# Track frame offsets:
#	150
#	1898
#	18548
#	42211
#	71448
#	88645
#	119544
#	133305
#	153481
#	187331
#
# Disc length: 2645 seconds
#
# Revision: 0
# Processed by: cddbd v1.5.1PL0 Copyright (c) Steve Scherf et al.
# Submitted via: CDex 1.50beta9
#
DISCID=880a530a
DTITLE=Harp Mama and the Granfathers - Live Xperience
DYEAR=1900
DGENRE=Blues
TTITLE0=Intro
TTITLE1=Pride and joy (S.R.Vaughan)
TTITLE2=One bourbon, one scotch, one beer (J.L.Hooker)
TTITLE3=Hoochie coovhie man ( W. Dixon)
TTITLE4=Blues Before sunrise (L.Carr)
TTITLE5=Lonely avenue (D. Pomus)
TTITLE6=Are you experienced? (J Hendrix)
TTITLE7=So excited (S. R. Vaughan)
TTITLE8=Mannish boy (M. Morganfield)
TTITLE9=Meeting across the river (B. Springsteen
EXTD=
EXTT0=
EXTT1=
EXTT2=
EXTT3=
EXTT4=
EXTT5=
EXTT6=
EXTT7=
EXTT8=
EXTT9=
PLAYORDER=
